# This file uses centimeters as units for non-parametric coordinates.

mtllib SandBag_Low.mtl
g default
v 0.500000 0.123672 -0.353553
v 0.500000 -0.000000 -0.500000
v 0.500000 -0.123672 -0.353553
v 0.500000 -0.174898 0.000000
v 0.500000 -0.123672 0.353553
v 0.500000 -0.000000 0.500000
v 0.500000 0.123672 0.353553
v 0.500000 0.174898 0.000000
v 0.390781 0.176777 -0.353553
v 0.390781 -0.000000 -0.500000
v 0.390781 -0.176777 -0.353553
v 0.390781 -0.250000 0.000000
v 0.390781 -0.176777 0.353553
v 0.390781 -0.000000 0.500000
v 0.390781 0.176777 0.353553
v 0.390781 0.250000 0.000000
v -0.390781 0.176777 -0.353553
v -0.390781 0.000000 -0.500000
v -0.390781 -0.176777 -0.353553
v -0.390781 -0.250000 0.000000
v -0.390781 -0.176777 0.353553
v -0.390781 0.000000 0.500000
v -0.390781 0.176777 0.353553
v -0.390781 0.250000 0.000000
v -0.500000 0.123672 -0.353553
v -0.500000 0.000000 -0.500000
v -0.500000 -0.123672 -0.353553
v -0.500000 -0.174898 0.000000
v -0.500000 -0.123672 0.353553
v -0.500000 0.000000 0.500000
v -0.500000 0.123672 0.353553
v -0.500000 0.174898 0.000000
v 0.500000 -0.000000 0.000000
v -0.500000 0.000000 0.000000
vt 0.610485 0.045765
vt 0.500000 0.000000
vt 0.389515 0.045765
vt 0.343750 0.156250
vt 0.389515 0.266735
vt 0.500000 0.312500
vt 0.610485 0.266735
vt 0.656250 0.156250
vt 0.375000 0.312500
vt 0.406250 0.312500
vt 0.437500 0.312500
vt 0.468750 0.312500
vt 0.500000 0.312500
vt 0.531250 0.312500
vt 0.562500 0.312500
vt 0.593750 0.312500
vt 0.625000 0.312500
vt 0.375000 0.437813
vt 0.406250 0.437813
vt 0.437500 0.437813
vt 0.468750 0.437813
vt 0.500000 0.437813
vt 0.531250 0.437813
vt 0.562500 0.437813
vt 0.593750 0.437813
vt 0.625000 0.437813
vt 0.375000 0.563127
vt 0.406250 0.563127
vt 0.437500 0.563127
vt 0.468750 0.563127
vt 0.500000 0.563127
vt 0.531250 0.563127
vt 0.562500 0.563127
vt 0.593750 0.563127
vt 0.625000 0.563127
vt 0.375000 0.688440
vt 0.406250 0.688440
vt 0.437500 0.688440
vt 0.468750 0.688440
vt 0.500000 0.688440
vt 0.531250 0.688440
vt 0.562500 0.688440
vt 0.593750 0.688440
vt 0.625000 0.688440
vt 0.610485 0.733265
vt 0.500000 0.687500
vt 0.389515 0.733265
vt 0.343750 0.843750
vt 0.389515 0.954235
vt 0.500000 1.000000
vt 0.610485 0.954235
vt 0.656250 0.843750
vt 0.500000 0.150000
vt 0.500000 0.837500
vn 0.000000 0.764015 -0.645199
vn 0.009551 0.648732 -0.760957
vn 0.258551 0.634352 -0.728525
vn 0.022301 0.637793 -0.769885
vn -0.000000 -0.764015 -0.645198
vn 0.258551 -0.634352 -0.728525
vn 0.009551 -0.648732 -0.760957
vn 0.022301 -0.637793 -0.769885
vn 0.433610 -0.891789 -0.129212
vn 0.532804 -0.830941 -0.160178
vn 0.074601 -0.977719 -0.196216
vn 0.067527 -0.976984 -0.202340
vn 0.433610 -0.891789 0.129212
vn 0.074601 -0.977719 0.196216
vn 0.532804 -0.830941 0.160178
vn 0.067527 -0.976984 0.202340
vn -0.000000 -0.764015 0.645198
vn 0.009551 -0.648732 0.760957
vn 0.258551 -0.634352 0.728525
vn 0.022301 -0.637793 0.769885
vn 0.000000 0.764015 0.645199
vn 0.258551 0.634352 0.728525
vn 0.009551 0.648732 0.760957
vn 0.022301 0.637793 0.769885
vn 0.433610 0.891789 0.129212
vn 0.532804 0.830941 0.160178
vn 0.074601 0.977719 0.196216
vn 0.067527 0.976984 0.202340
vn 0.433610 0.891789 -0.129212
vn 0.074601 0.977719 -0.196216
vn 0.532804 0.830941 -0.160178
vn 0.067527 0.976984 -0.202340
vn -0.022301 0.637793 -0.769885
vn -0.009551 0.648732 -0.760957
vn -0.009551 -0.648732 -0.760957
vn -0.022301 -0.637793 -0.769885
vn -0.074601 -0.977719 -0.196216
vn -0.067527 -0.976984 -0.202340
vn -0.067527 -0.976984 0.202340
vn -0.074601 -0.977719 0.196216
vn -0.022301 -0.637793 0.769885
vn -0.009551 -0.648732 0.760957
vn -0.009551 0.648732 0.760957
vn -0.022301 0.637793 0.769885
vn -0.074601 0.977719 0.196216
vn -0.067527 0.976984 0.202340
vn -0.067527 0.976984 -0.202340
vn -0.074601 0.977719 -0.196216
vn -0.258551 0.634352 -0.728525
vn 0.000000 0.764015 -0.645199
vn -0.258551 -0.634352 -0.728525
vn -0.000000 -0.764015 -0.645198
vn -0.532804 -0.830941 -0.160178
vn -0.433610 -0.891789 -0.129212
vn -0.532804 -0.830941 0.160178
vn -0.433610 -0.891789 0.129212
vn -0.258551 -0.634352 0.728525
vn -0.000000 -0.764015 0.645198
vn -0.258551 0.634352 0.728526
vn 0.000000 0.764015 0.645198
vn -0.532804 0.830941 0.160178
vn -0.433610 0.891788 0.129212
vn -0.532804 0.830941 -0.160178
vn -0.433610 0.891789 -0.129212
vn 1.000000 -0.000000 0.000000
vn 1.000000 -0.000000 0.000000
vn 1.000000 -0.000000 0.000000
vn 1.000000 -0.000000 0.000000
vn 1.000000 -0.000000 0.000000
vn 1.000000 -0.000000 0.000000
vn 1.000000 -0.000000 0.000000
vn 1.000000 -0.000000 0.000000
vn 1.000000 -0.000000 0.000000
vn -1.000000 0.000000 0.000000
vn -1.000000 0.000000 0.000000
vn -1.000000 0.000000 0.000000
vn -1.000000 0.000000 0.000000
vn -1.000000 0.000000 0.000000
vn -1.000000 0.000000 0.000000
vn -1.000000 0.000000 0.000000
vn -1.000000 0.000000 0.000000
vn -1.000000 0.000000 0.000000
s 1
g pCylinder1
usemtl initialShadingGroup
f 2/10/1 10/19/2 1/9/3
f 1/9/3 10/19/2 9/18/4
s 2
f 2/10/5 3/11/6 10/19/7
f 10/19/7 3/11/6 11/20/8
s 3
f 3/11/9 4/12/10 11/20/11
f 11/20/11 4/12/10 12/21/12
s 4
f 5/13/13 13/22/14 4/12/15
f 4/12/15 13/22/14 12/21/16
s 5
f 6/14/17 14/23/18 5/13/19
f 5/13/19 14/23/18 13/22/20
s 6
f 6/14/21 7/15/22 14/23/23
f 14/23/23 7/15/22 15/24/24
s 7
f 7/15/25 8/16/26 15/24/27
f 15/24/27 8/16/26 16/25/28
s 8
f 1/17/29 9/26/30 8/16/31
f 8/16/31 9/26/30 16/25/32
s 1
f 9/18/4 10/19/2 17/27/33
f 17/27/33 10/19/2 18/28/34
s 2
f 10/19/7 11/20/8 18/28/35
f 18/28/35 11/20/8 19/29/36
s 3
f 11/20/11 12/21/12 19/29/37
f 19/29/37 12/21/12 20/30/38
s 4
f 12/21/16 13/22/14 20/30/39
f 20/30/39 13/22/14 21/31/40
s 5
f 13/22/20 14/23/18 21/31/41
f 21/31/41 14/23/18 22/32/42
s 6
f 14/23/23 15/24/24 22/32/43
f 22/32/43 15/24/24 23/33/44
s 7
f 15/24/27 16/25/28 23/33/45
f 23/33/45 16/25/28 24/34/46
s 8
f 16/25/32 9/26/30 24/34/47
f 24/34/47 9/26/30 17/35/48
s 1
f 17/27/33 18/28/34 25/36/49
f 25/36/49 18/28/34 26/37/50
s 2
f 19/29/36 27/38/51 18/28/35
f 18/28/35 27/38/51 26/37/52
s 3
f 20/30/38 28/39/53 19/29/37
f 19/29/37 28/39/53 27/38/54
s 4
f 20/30/39 21/31/40 28/39/55
f 28/39/55 21/31/40 29/40/56
s 5
f 21/31/41 22/32/42 29/40/57
f 29/40/57 22/32/42 30/41/58
s 6
f 23/33/44 31/42/59 22/32/43
f 22/32/43 31/42/59 30/41/60
s 7
f 24/34/46 32/43/61 23/33/45
f 23/33/45 32/43/61 31/42/62
s 8
f 24/34/47 17/35/48 32/43/63
f 32/43/63 17/35/48 25/44/64
s 9
f 2/2/65 1/1/66 33/53/67
f 3/3/68 2/2/65 33/53/67
f 4/4/69 3/3/68 33/53/67
f 5/5/70 4/4/69 33/53/67
f 6/6/71 5/5/70 33/53/67
f 7/7/72 6/6/71 33/53/67
f 8/8/73 7/7/72 33/53/67
f 1/1/66 8/8/73 33/53/67
s 10
f 25/51/74 26/50/75 34/54/76
f 26/50/75 27/49/77 34/54/76
f 27/49/77 28/48/78 34/54/76
f 28/48/78 29/47/79 34/54/76
f 29/47/79 30/46/80 34/54/76
f 30/46/80 31/45/81 34/54/76
f 31/45/81 32/52/82 34/54/76
f 32/52/82 25/51/74 34/54/76
