# This file uses centimeters as units for non-parametric coordinates.

mtllib SandBag_Med.mtl
g default
v 0.500000 0.160662 -0.191341
v 0.500000 0.122965 -0.353553
v 0.500000 0.066548 -0.461940
v 0.516074 0.000000 -0.500000
v 0.500000 -0.066548 -0.461940
v 0.500000 -0.122965 -0.353554
v 0.500000 -0.160662 -0.191342
v 0.500000 -0.173899 -0.000000
v 0.500000 -0.160662 0.191342
v 0.500000 -0.122965 0.353553
v 0.500000 -0.066548 0.461940
v 0.516074 -0.000000 0.500000
v 0.500000 0.066548 0.461940
v 0.500000 0.122965 0.353553
v 0.500000 0.160662 0.191342
v 0.500000 0.173899 0.000000
v 0.385192 0.230970 -0.191341
v 0.385192 0.176777 -0.353553
v 0.385192 0.095671 -0.461940
v 0.385192 0.000000 -0.500000
v 0.385192 -0.095671 -0.461940
v 0.385192 -0.176777 -0.353554
v 0.385192 -0.230970 -0.191342
v 0.385192 -0.250000 -0.000000
v 0.385192 -0.230970 0.191342
v 0.385192 -0.176777 0.353553
v 0.385192 -0.095671 0.461940
v 0.385192 -0.000000 0.500000
v 0.385192 0.095671 0.461940
v 0.385192 0.176777 0.353553
v 0.385192 0.230970 0.191342
v 0.385192 0.250000 0.000000
v 0.000000 0.230970 -0.191341
v 0.000000 0.176777 -0.353553
v 0.000000 0.095671 -0.461940
v 0.000000 0.000000 -0.500000
v -0.000000 -0.095671 -0.461940
v -0.000000 -0.176777 -0.353554
v -0.000000 -0.230970 -0.191342
v -0.000000 -0.250000 -0.000000
v -0.000000 -0.230970 0.191342
v -0.000000 -0.176777 0.353553
v -0.000000 -0.095671 0.461940
v -0.000000 -0.000000 0.500000
v 0.000000 0.095671 0.461940
v 0.000000 0.176777 0.353553
v 0.000000 0.230970 0.191342
v 0.000000 0.250000 0.000000
v -0.385192 0.230970 -0.191341
v -0.385192 0.176777 -0.353553
v -0.385192 0.095671 -0.461940
v -0.385192 0.000000 -0.500000
v -0.385192 -0.095671 -0.461940
v -0.385192 -0.176777 -0.353554
v -0.385192 -0.230970 -0.191342
v -0.385192 -0.250000 -0.000000
v -0.385192 -0.230970 0.191342
v -0.385192 -0.176777 0.353553
v -0.385192 -0.095671 0.461940
v -0.385192 -0.000000 0.500000
v -0.385192 0.095671 0.461940
v -0.385192 0.176777 0.353553
v -0.385192 0.230970 0.191342
v -0.385192 0.250000 0.000000
v -0.500000 0.160662 -0.191341
v -0.500000 0.122965 -0.353553
v -0.500000 0.066548 -0.461940
v -0.516074 0.000000 -0.500000
v -0.500000 -0.066548 -0.461940
v -0.500000 -0.122965 -0.353554
v -0.500000 -0.160662 -0.191342
v -0.500000 -0.173899 -0.000000
v -0.500000 -0.160662 0.191342
v -0.500000 -0.122965 0.353553
v -0.500000 -0.066548 0.461940
v -0.516074 -0.000000 0.500000
v -0.500000 0.066548 0.461940
v -0.500000 0.122965 0.353553
v -0.500000 0.160662 0.191342
v -0.500000 0.173899 0.000000
v 0.516074 -0.000000 0.000000
v -0.516074 0.000000 0.000000
vt 0.644356 0.096456
vt 0.610485 0.045765
vt 0.559794 0.011894
vt 0.500000 0.000000
vt 0.440206 0.011894
vt 0.389515 0.045765
vt 0.355644 0.096456
vt 0.343750 0.156250
vt 0.355644 0.216044
vt 0.389515 0.266735
vt 0.440206 0.300606
vt 0.500000 0.312500
vt 0.559794 0.300606
vt 0.610485 0.266735
vt 0.644356 0.216044
vt 0.656250 0.156250
vt 0.375000 0.312500
vt 0.390625 0.312500
vt 0.406250 0.312500
vt 0.421875 0.312500
vt 0.437500 0.312500
vt 0.453125 0.312500
vt 0.468750 0.312500
vt 0.484375 0.312500
vt 0.500000 0.312500
vt 0.515625 0.312500
vt 0.531250 0.312500
vt 0.546875 0.312500
vt 0.562500 0.312500
vt 0.578125 0.312500
vt 0.593750 0.312500
vt 0.609375 0.312500
vt 0.625000 0.312500
vt 0.375000 0.406485
vt 0.390625 0.406485
vt 0.406250 0.406485
vt 0.421875 0.406485
vt 0.437500 0.406485
vt 0.453125 0.406485
vt 0.468750 0.406485
vt 0.484375 0.406485
vt 0.500000 0.406485
vt 0.515625 0.406485
vt 0.531250 0.406485
vt 0.546875 0.406485
vt 0.562500 0.406485
vt 0.578125 0.406485
vt 0.593750 0.406485
vt 0.609375 0.406485
vt 0.625000 0.406485
vt 0.375000 0.500470
vt 0.390625 0.500470
vt 0.406250 0.500470
vt 0.421875 0.500470
vt 0.437500 0.500470
vt 0.453125 0.500470
vt 0.468750 0.500470
vt 0.484375 0.500470
vt 0.500000 0.500470
vt 0.515625 0.500470
vt 0.531250 0.500470
vt 0.546875 0.500470
vt 0.562500 0.500470
vt 0.578125 0.500470
vt 0.593750 0.500470
vt 0.609375 0.500470
vt 0.625000 0.500470
vt 0.375000 0.594455
vt 0.390625 0.594455
vt 0.406250 0.594455
vt 0.421875 0.594455
vt 0.437500 0.594455
vt 0.453125 0.594455
vt 0.468750 0.594455
vt 0.484375 0.594455
vt 0.500000 0.594455
vt 0.515625 0.594455
vt 0.531250 0.594455
vt 0.546875 0.594455
vt 0.562500 0.594455
vt 0.578125 0.594455
vt 0.593750 0.594455
vt 0.609375 0.594455
vt 0.625000 0.594455
vt 0.375000 0.688440
vt 0.390625 0.688440
vt 0.406250 0.688440
vt 0.421875 0.688440
vt 0.437500 0.688440
vt 0.453125 0.688440
vt 0.468750 0.688440
vt 0.484375 0.688440
vt 0.500000 0.688440
vt 0.515625 0.688440
vt 0.531250 0.688440
vt 0.546875 0.688440
vt 0.562500 0.688440
vt 0.578125 0.688440
vt 0.593750 0.688440
vt 0.609375 0.688440
vt 0.625000 0.688440
vt 0.644356 0.783956
vt 0.610485 0.733265
vt 0.559794 0.699394
vt 0.500000 0.687500
vt 0.440206 0.699394
vt 0.389515 0.733265
vt 0.355644 0.783956
vt 0.343750 0.843750
vt 0.355644 0.903544
vt 0.389515 0.954235
vt 0.440206 0.988106
vt 0.500000 1.000000
vt 0.559794 0.988106
vt 0.610485 0.954235
vt 0.644356 0.903544
vt 0.656250 0.843750
vt 0.500000 0.150000
vt 0.500000 0.837500
vn 0.360647 0.848503 -0.387268
vn 0.107167 0.897607 -0.427571
vn 0.494788 0.854565 -0.157805
vn 0.131746 0.972071 -0.194219
vn 0.136843 0.641693 -0.754655
vn 0.054879 0.658682 -0.750417
vn 0.000000 0.000002 -1.000000
vn 0.010547 0.000001 -0.999944
vn 0.136843 -0.641691 -0.754656
vn 0.054879 -0.658681 -0.750418
vn 0.360647 -0.848503 -0.387269
vn 0.107167 -0.897607 -0.427572
vn 0.494788 -0.854565 -0.157805
vn 0.131746 -0.972071 -0.194219
vn 0.538289 -0.842760 -0.000000
vn 0.138895 -0.990307 -0.000000
vn 0.494788 -0.854565 0.157805
vn 0.131746 -0.972071 0.194219
vn 0.360647 -0.848503 0.387268
vn 0.107167 -0.897607 0.427571
vn 0.136843 -0.641692 0.754655
vn 0.054879 -0.658682 0.750418
vn -0.000000 -0.000001 1.000000
vn 0.010547 -0.000000 0.999944
vn 0.136843 0.641692 0.754656
vn 0.054879 0.658682 0.750418
vn 0.360647 0.848503 0.387268
vn 0.107167 0.897607 0.427572
vn 0.494788 0.854565 0.157805
vn 0.131746 0.972071 0.194219
vn 0.538289 0.842760 0.000000
vn 0.138895 0.990307 0.000000
vn 0.000000 0.979220 -0.202803
vn 0.000000 0.894427 -0.447213
vn 0.000000 0.637953 -0.770076
vn 0.000000 0.000001 -1.000000
vn -0.000000 -0.637951 -0.770077
vn -0.000000 -0.894427 -0.447214
vn -0.000000 -0.979219 -0.202803
vn -0.000000 -1.000000 -0.000000
vn -0.000000 -0.979220 0.202803
vn -0.000000 -0.894427 0.447213
vn -0.000000 -0.637952 0.770076
vn -0.000000 -0.000000 1.000000
vn 0.000000 0.637952 0.770076
vn 0.000000 0.894427 0.447214
vn 0.000000 0.979220 0.202803
vn 0.000000 1.000000 0.000000
vn -0.131746 0.972071 -0.194219
vn -0.107167 0.897607 -0.427571
vn -0.054879 0.658682 -0.750417
vn -0.010547 0.000001 -0.999944
vn -0.054879 -0.658681 -0.750418
vn -0.107167 -0.897607 -0.427572
vn -0.131746 -0.972071 -0.194219
vn -0.138895 -0.990307 -0.000000
vn -0.131746 -0.972071 0.194219
vn -0.107167 -0.897607 0.427572
vn -0.054879 -0.658682 0.750418
vn -0.010547 -0.000000 0.999944
vn -0.054879 0.658682 0.750418
vn -0.107167 0.897607 0.427572
vn -0.131746 0.972071 0.194219
vn -0.138895 0.990307 0.000000
vn -0.494788 0.854565 -0.157805
vn -0.360647 0.848503 -0.387268
vn -0.136843 0.641693 -0.754655
vn 0.000000 0.000002 -1.000000
vn -0.136843 -0.641691 -0.754656
vn -0.360647 -0.848503 -0.387269
vn -0.494788 -0.854565 -0.157805
vn -0.538289 -0.842760 -0.000000
vn -0.494788 -0.854565 0.157805
vn -0.360647 -0.848503 0.387268
vn -0.136843 -0.641692 0.754655
vn -0.000000 -0.000001 1.000000
vn -0.136843 0.641692 0.754656
vn -0.360647 0.848503 0.387268
vn -0.494788 0.854565 0.157805
vn -0.538289 0.842760 0.000000
vn 0.997792 0.062010 -0.023797
vn 0.996389 0.083854 -0.013295
vn 1.000000 -0.000000 -0.000000
vn 0.986753 0.161853 -0.011019
vn 1.000000 -0.000000 -0.000000
vn 0.986753 -0.161853 -0.011019
vn 0.997792 -0.062010 -0.023797
vn 0.996389 -0.083854 -0.013295
vn 0.995755 -0.092041 -0.000000
vn 0.996389 -0.083854 0.013295
vn 0.997792 -0.062010 0.023797
vn 0.986753 -0.161853 0.011019
vn 1.000000 0.000000 -0.000000
vn 0.986753 0.161853 0.011019
vn 0.997792 0.062010 0.023797
vn 0.996389 0.083854 0.013295
vn 0.995755 0.092041 -0.000000
vn -0.996389 0.083854 -0.013295
vn -0.997792 0.062010 -0.023797
vn -1.000000 -0.000000 0.000000
vn -0.986753 0.161853 -0.011019
vn -1.000000 -0.000000 0.000000
vn -0.986753 -0.161853 -0.011019
vn -0.997792 -0.062010 -0.023797
vn -0.996389 -0.083854 -0.013295
vn -0.995755 -0.092041 -0.000000
vn -0.996389 -0.083854 0.013295
vn -0.997792 -0.062010 0.023797
vn -0.986753 -0.161853 0.011019
vn -1.000000 0.000000 0.000000
vn -0.986753 0.161853 0.011019
vn -0.997792 0.062010 0.023797
vn -0.996389 0.083854 0.013295
vn -0.995755 0.092041 -0.000000
s 1
g pCylinder2
usemtl initialShadingGroup
f 2/18/1 18/35/2 1/17/3
f 1/17/3 18/35/2 17/34/4
f 3/19/5 19/36/6 2/18/1
f 2/18/1 19/36/6 18/35/2
f 4/20/7 20/37/8 3/19/5
f 3/19/5 20/37/8 19/36/6
f 4/20/7 5/21/9 20/37/8
f 20/37/8 5/21/9 21/38/10
f 5/21/9 6/22/11 21/38/10
f 21/38/10 6/22/11 22/39/12
f 6/22/11 7/23/13 22/39/12
f 22/39/12 7/23/13 23/40/14
f 7/23/13 8/24/15 23/40/14
f 23/40/14 8/24/15 24/41/16
f 9/25/17 25/42/18 8/24/15
f 8/24/15 25/42/18 24/41/16
f 10/26/19 26/43/20 9/25/17
f 9/25/17 26/43/20 25/42/18
f 11/27/21 27/44/22 10/26/19
f 10/26/19 27/44/22 26/43/20
f 12/28/23 28/45/24 11/27/21
f 11/27/21 28/45/24 27/44/22
f 12/28/23 13/29/25 28/45/24
f 28/45/24 13/29/25 29/46/26
f 13/29/25 14/30/27 29/46/26
f 29/46/26 14/30/27 30/47/28
f 14/30/27 15/31/29 30/47/28
f 30/47/28 15/31/29 31/48/30
f 15/31/29 16/32/31 31/48/30
f 31/48/30 16/32/31 32/49/32
f 1/33/3 17/50/4 16/32/31
f 16/32/31 17/50/4 32/49/32
f 17/34/4 18/35/2 33/51/33
f 33/51/33 18/35/2 34/52/34
f 18/35/2 19/36/6 34/52/34
f 34/52/34 19/36/6 35/53/35
f 19/36/6 20/37/8 35/53/35
f 35/53/35 20/37/8 36/54/36
f 20/37/8 21/38/10 36/54/36
f 36/54/36 21/38/10 37/55/37
f 21/38/10 22/39/12 37/55/37
f 37/55/37 22/39/12 38/56/38
f 22/39/12 23/40/14 38/56/38
f 38/56/38 23/40/14 39/57/39
f 23/40/14 24/41/16 39/57/39
f 39/57/39 24/41/16 40/58/40
f 24/41/16 25/42/18 40/58/40
f 40/58/40 25/42/18 41/59/41
f 25/42/18 26/43/20 41/59/41
f 41/59/41 26/43/20 42/60/42
f 26/43/20 27/44/22 42/60/42
f 42/60/42 27/44/22 43/61/43
f 27/44/22 28/45/24 43/61/43
f 43/61/43 28/45/24 44/62/44
f 28/45/24 29/46/26 44/62/44
f 44/62/44 29/46/26 45/63/45
f 29/46/26 30/47/28 45/63/45
f 45/63/45 30/47/28 46/64/46
f 30/47/28 31/48/30 46/64/46
f 46/64/46 31/48/30 47/65/47
f 31/48/30 32/49/32 47/65/47
f 47/65/47 32/49/32 48/66/48
f 32/49/32 17/50/4 48/66/48
f 48/66/48 17/50/4 33/67/33
f 33/51/33 34/52/34 49/68/49
f 49/68/49 34/52/34 50/69/50
f 34/52/34 35/53/35 50/69/50
f 50/69/50 35/53/35 51/70/51
f 35/53/35 36/54/36 51/70/51
f 51/70/51 36/54/36 52/71/52
f 36/54/36 37/55/37 52/71/52
f 52/71/52 37/55/37 53/72/53
f 37/55/37 38/56/38 53/72/53
f 53/72/53 38/56/38 54/73/54
f 38/56/38 39/57/39 54/73/54
f 54/73/54 39/57/39 55/74/55
f 39/57/39 40/58/40 55/74/55
f 55/74/55 40/58/40 56/75/56
f 40/58/40 41/59/41 56/75/56
f 56/75/56 41/59/41 57/76/57
f 41/59/41 42/60/42 57/76/57
f 57/76/57 42/60/42 58/77/58
f 42/60/42 43/61/43 58/77/58
f 58/77/58 43/61/43 59/78/59
f 43/61/43 44/62/44 59/78/59
f 59/78/59 44/62/44 60/79/60
f 44/62/44 45/63/45 60/79/60
f 60/79/60 45/63/45 61/80/61
f 45/63/45 46/64/46 61/80/61
f 61/80/61 46/64/46 62/81/62
f 46/64/46 47/65/47 62/81/62
f 62/81/62 47/65/47 63/82/63
f 47/65/47 48/66/48 63/82/63
f 63/82/63 48/66/48 64/83/64
f 48/66/48 33/67/33 64/83/64
f 64/83/64 33/67/33 49/84/49
f 49/68/49 50/69/50 65/85/65
f 65/85/65 50/69/50 66/86/66
f 50/69/50 51/70/51 66/86/66
f 66/86/66 51/70/51 67/87/67
f 51/70/51 52/71/52 67/87/67
f 67/87/67 52/71/52 68/88/68
f 53/72/53 69/89/69 52/71/52
f 52/71/52 69/89/69 68/88/68
f 54/73/54 70/90/70 53/72/53
f 53/72/53 70/90/70 69/89/69
f 55/74/55 71/91/71 54/73/54
f 54/73/54 71/91/71 70/90/70
f 56/75/56 72/92/72 55/74/55
f 55/74/55 72/92/72 71/91/71
f 56/75/56 57/76/57 72/92/72
f 72/92/72 57/76/57 73/93/73
f 57/76/57 58/77/58 73/93/73
f 73/93/73 58/77/58 74/94/74
f 58/77/58 59/78/59 74/94/74
f 74/94/74 59/78/59 75/95/75
f 59/78/59 60/79/60 75/95/75
f 75/95/75 60/79/60 76/96/76
f 61/80/61 77/97/77 60/79/60
f 60/79/60 77/97/77 76/96/76
f 62/81/62 78/98/78 61/80/61
f 61/80/61 78/98/78 77/97/77
f 63/82/63 79/99/79 62/81/62
f 62/81/62 79/99/79 78/98/78
f 64/83/64 80/100/80 63/82/63
f 63/82/63 80/100/80 79/99/79
f 64/83/64 49/84/49 80/100/80
f 80/100/80 49/84/49 65/101/65
s 8
f 2/2/81 1/1/82 81/118/83
f 3/3/84 2/2/81 81/118/83
f 4/4/85 3/3/84 81/118/83
f 5/5/86 4/4/85 81/118/83
f 6/6/87 5/5/86 81/118/83
f 7/7/88 6/6/87 81/118/83
f 8/8/89 7/7/88 81/118/83
f 9/9/90 8/8/89 81/118/83
f 10/10/91 9/9/90 81/118/83
f 11/11/92 10/10/91 81/118/83
f 12/12/93 11/11/92 81/118/83
f 13/13/94 12/12/93 81/118/83
f 14/14/95 13/13/94 81/118/83
f 15/15/96 14/14/95 81/118/83
f 16/16/97 15/15/96 81/118/83
f 1/1/82 16/16/97 81/118/83
s 9
f 65/116/98 66/115/99 82/119/100
f 66/115/99 67/114/101 82/119/100
f 67/114/101 68/113/102 82/119/100
f 68/113/102 69/112/103 82/119/100
f 69/112/103 70/111/104 82/119/100
f 70/111/104 71/110/105 82/119/100
f 71/110/105 72/109/106 82/119/100
f 72/109/106 73/108/107 82/119/100
f 73/108/107 74/107/108 82/119/100
f 74/107/108 75/106/109 82/119/100
f 75/106/109 76/105/110 82/119/100
f 76/105/110 77/104/111 82/119/100
f 77/104/111 78/103/112 82/119/100
f 78/103/112 79/102/113 82/119/100
f 79/102/113 80/117/114 82/119/100
f 80/117/114 65/116/98 82/119/100
