# This file uses centimeters as units for non-parametric coordinates.

mtllib Tree_Med.mtl
g default
v 0.450484 0.366838 -0.216942
v 0.311745 0.366838 -0.390916
v 0.111261 0.366838 -0.487464
v -0.111260 0.366838 -0.487464
v -0.311745 0.366838 -0.390916
v -0.450484 0.366838 -0.216942
v -0.500000 0.366838 -0.000000
v -0.450484 0.366838 0.216942
v -0.311745 0.366838 0.390916
v -0.111261 0.366838 0.487464
v 0.111260 0.366838 0.487464
v 0.311745 0.366838 0.390916
v 0.450484 0.366838 0.216942
v 0.500000 0.366838 0.000000
v 0.000000 0.916395 0.000000
v 0.340890 0.654227 -0.164164
v 0.235903 0.654227 -0.295813
v 0.084193 0.654227 -0.368873
v -0.084193 0.654227 -0.368873
v -0.235903 0.654227 -0.295813
v -0.340890 0.654227 -0.164164
v -0.378359 0.654227 -0.000000
v -0.340890 0.654227 0.164164
v -0.235903 0.654227 0.295813
v -0.084193 0.654227 0.368873
v 0.084193 0.654227 0.368873
v 0.235903 0.654227 0.295813
v 0.340890 0.654227 0.164164
v 0.378360 0.654227 0.000000
v 0.000000 1.203784 0.000000
v 0.094537 0.000000 -0.039158
v 0.072355 0.000000 -0.072355
v 0.039158 0.000000 -0.094537
v 0.000000 0.000000 -0.102326
v -0.039158 0.000000 -0.094537
v -0.072355 0.000000 -0.072355
v -0.094537 0.000000 -0.039158
v -0.102326 0.000000 -0.000000
v -0.094537 0.000000 0.039158
v -0.072355 0.000000 0.072355
v -0.039158 0.000000 0.094537
v -0.000000 0.000000 0.102326
v 0.039158 0.000000 0.094537
v 0.072355 0.000000 0.072355
v 0.094537 0.000000 0.039158
v 0.102326 0.000000 0.000000
v 0.094537 0.366838 -0.039158
v 0.072355 0.366838 -0.072355
v 0.039158 0.366838 -0.094537
v 0.000000 0.366838 -0.102326
v -0.039158 0.366838 -0.094537
v -0.072355 0.366838 -0.072355
v -0.094537 0.366838 -0.039158
v -0.102326 0.366838 -0.000000
v -0.094537 0.366838 0.039158
v -0.072355 0.366838 0.072355
v -0.039158 0.366838 0.094537
v -0.000000 0.366838 0.102326
v 0.039158 0.366838 0.094537
v 0.072355 0.366838 0.072355
v 0.094537 0.366838 0.039158
v 0.102326 0.366838 0.000000
v 0.000000 0.000000 0.000000
v 0.000000 0.366838 0.000000
vt 0.725242 0.141529
vt 0.655872 0.054542
vt 0.555630 0.006268
vt 0.444370 0.006268
vt 0.344128 0.054542
vt 0.274758 0.141529
vt 0.250000 0.250000
vt 0.274758 0.358471
vt 0.344128 0.445458
vt 0.444370 0.493732
vt 0.555630 0.493732
vt 0.655872 0.445458
vt 0.725242 0.358471
vt 0.750000 0.250000
vt 0.250000 0.500000
vt 0.285714 0.500000
vt 0.321429 0.500000
vt 0.357143 0.500000
vt 0.392857 0.500000
vt 0.428571 0.500000
vt 0.464286 0.500000
vt 0.500000 0.500000
vt 0.535714 0.500000
vt 0.571429 0.500000
vt 0.607143 0.500000
vt 0.642857 0.500000
vt 0.678571 0.500000
vt 0.714286 0.500000
vt 0.750000 0.500000
vt 0.500000 1.000000
vt 0.725242 0.141529
vt 0.750000 0.250000
vt 0.725242 0.358471
vt 0.655872 0.445458
vt 0.555630 0.493732
vt 0.444370 0.493732
vt 0.344128 0.445458
vt 0.274758 0.358471
vt 0.250000 0.250000
vt 0.274758 0.141529
vt 0.344128 0.054542
vt 0.444370 0.006268
vt 0.555630 0.006268
vt 0.655872 0.054542
vt 0.250000 0.500000
vt 0.285714 0.500000
vt 0.500000 1.000000
vt 0.321429 0.500000
vt 0.357143 0.500000
vt 0.392857 0.500000
vt 0.428571 0.500000
vt 0.464286 0.500000
vt 0.500000 0.500000
vt 0.535714 0.500000
vt 0.571429 0.500000
vt 0.607143 0.500000
vt 0.642857 0.500000
vt 0.678571 0.500000
vt 0.714286 0.500000
vt 0.750000 0.500000
vt 0.375000 0.312500
vt 0.390625 0.312500
vt 0.390625 0.688440
vt 0.375000 0.688440
vt 0.406250 0.312500
vt 0.406250 0.688440
vt 0.421875 0.312500
vt 0.421875 0.688440
vt 0.437500 0.312500
vt 0.437500 0.688440
vt 0.453125 0.312500
vt 0.453125 0.688440
vt 0.468750 0.312500
vt 0.468750 0.688440
vt 0.484375 0.312500
vt 0.484375 0.688440
vt 0.500000 0.312500
vt 0.500000 0.688440
vt 0.515625 0.312500
vt 0.515625 0.688440
vt 0.531250 0.312500
vt 0.531250 0.688440
vt 0.546875 0.312500
vt 0.546875 0.688440
vt 0.562500 0.312500
vt 0.562500 0.688440
vt 0.578125 0.312500
vt 0.578125 0.688440
vt 0.593750 0.312500
vt 0.593750 0.688440
vt 0.609375 0.312500
vt 0.609375 0.688440
vt 0.625000 0.312500
vt 0.625000 0.688440
vt 0.610485 0.045765
vt 0.644356 0.096456
vt 0.500000 0.150000
vt 0.559794 0.011894
vt 0.500000 0.000000
vt 0.440206 0.011894
vt 0.389515 0.045765
vt 0.355644 0.096456
vt 0.343750 0.156250
vt 0.355644 0.216044
vt 0.389515 0.266735
vt 0.440206 0.300606
vt 0.500000 0.312500
vt 0.559794 0.300606
vt 0.610485 0.266735
vt 0.644356 0.216044
vt 0.656250 0.156250
vt 0.644356 0.903544
vt 0.610485 0.954235
vt 0.500000 0.837500
vt 0.559794 0.988106
vt 0.500000 1.000000
vt 0.440206 0.988106
vt 0.389515 0.954235
vt 0.355644 0.903544
vt 0.343750 0.843750
vt 0.355644 0.783956
vt 0.389515 0.733265
vt 0.440206 0.699394
vt 0.500000 0.687500
vt 0.559794 0.699394
vt 0.610485 0.733265
vt 0.644356 0.783956
vt 0.656250 0.843750
vn 0.000000 -1.000000 0.000000
vn 0.000000 -1.000000 -0.000000
vn 0.000000 -1.000000 0.000000
vn 0.000000 -1.000000 -0.000000
vn 0.000000 -1.000000 -0.000000
vn 0.000000 -1.000000 -0.000000
vn 0.000000 -1.000000 0.000000
vn 0.000000 -1.000000 0.000000
vn 0.000000 -1.000000 0.000000
vn 0.000000 -1.000000 0.000000
vn 0.000000 -1.000000 0.000000
vn 0.000000 -1.000000 0.000000
vn 0.000000 -1.000000 0.000000
vn 0.000000 -1.000000 0.000000
vn 0.666420 0.672969 -0.320931
vn 0.461177 0.672970 -0.578297
vn 0.000000 1.000000 -0.000000
vn 0.164592 0.672970 -0.721125
vn -0.164592 0.672969 -0.721125
vn -0.461177 0.672969 -0.578298
vn -0.666420 0.672969 -0.320931
vn -0.739670 0.672970 -0.000000
vn -0.666420 0.672969 0.320931
vn -0.461177 0.672969 0.578297
vn -0.164592 0.672969 0.721125
vn 0.164592 0.672969 0.721125
vn 0.461177 0.672970 0.578298
vn 0.666420 0.672970 0.320931
vn 0.739670 0.672970 -0.000000
vn 0.000000 -1.000000 0.000000
vn 0.000000 -1.000000 0.000000
vn 0.000000 -1.000000 -0.000000
vn 0.000000 -1.000000 0.000000
vn 0.000000 -1.000000 -0.000000
vn 0.000000 -1.000000 0.000000
vn 0.000000 -1.000000 0.000000
vn 0.000000 -1.000000 -0.000000
vn 0.000000 -1.000000 -0.000000
vn 0.000000 -1.000000 0.000000
vn 0.000000 -1.000000 0.000000
vn 0.000000 -1.000000 0.000001
vn 0.000000 -1.000000 -0.000000
vn 0.000000 -1.000000 -0.000002
vn 0.742096 0.567077 -0.357375
vn 0.513547 0.567077 -0.643967
vn -0.000000 1.000000 0.000000
vn 0.183283 0.567077 -0.803014
vn -0.183283 0.567077 -0.803014
vn -0.513546 0.567077 -0.643967
vn -0.742096 0.567077 -0.357375
vn -0.823665 0.567077 -0.000000
vn -0.742096 0.567077 0.357375
vn -0.513547 0.567077 0.643967
vn -0.183283 0.567077 0.803014
vn 0.183282 0.567077 0.803014
vn 0.513546 0.567077 0.643967
vn 0.742096 0.567077 0.357375
vn 0.823665 0.567077 0.000000
vn 0.923880 0.000000 -0.382683
vn 0.707107 0.000000 -0.707106
vn 0.923880 0.000000 -0.382683
vn 0.707107 0.000000 -0.707106
vn 0.382684 0.000000 -0.923879
vn 0.382684 0.000000 -0.923879
vn 0.000001 0.000000 -1.000000
vn 0.000001 0.000000 -1.000000
vn -0.382683 0.000000 -0.923880
vn -0.382683 0.000000 -0.923880
vn -0.707106 0.000000 -0.707107
vn -0.707107 0.000000 -0.707107
vn -0.923879 0.000000 -0.382684
vn -0.923879 0.000000 -0.382684
vn -1.000000 0.000000 -0.000000
vn -1.000000 0.000000 -0.000000
vn -0.923880 0.000000 0.382683
vn -0.923880 0.000000 0.382683
vn -0.707107 0.000000 0.707107
vn -0.707107 0.000000 0.707106
vn -0.382683 0.000000 0.923880
vn -0.382684 0.000000 0.923879
vn -0.000000 0.000000 1.000000
vn 0.000000 0.000000 1.000000
vn 0.382683 0.000000 0.923880
vn 0.382684 0.000000 0.923880
vn 0.707107 0.000000 0.707107
vn 0.707107 0.000000 0.707107
vn 0.923880 0.000000 0.382683
vn 0.923880 0.000000 0.382683
vn 1.000000 0.000000 0.000000
vn 1.000000 0.000000 0.000000
vn 0.000000 -1.000000 0.000000
vn 0.000000 -1.000000 0.000000
vn 0.000000 -1.000000 0.000000
vn 0.000000 -1.000000 0.000000
vn 0.000000 -1.000000 0.000000
vn 0.000000 -1.000000 0.000000
vn 0.000000 -1.000000 0.000000
vn 0.000000 -1.000000 0.000000
vn 0.000000 -1.000000 0.000000
vn 0.000000 -1.000000 0.000000
vn 0.000000 -1.000000 0.000000
vn 0.000000 -1.000000 0.000000
vn 0.000000 -1.000000 0.000000
vn 0.000000 -1.000000 0.000000
vn 0.000000 -1.000000 0.000000
vn 0.000000 -1.000000 0.000000
vn 0.000000 -1.000000 0.000000
vn 0.000000 1.000000 0.000000
vn 0.000000 1.000000 0.000000
vn 0.000000 1.000000 0.000000
vn 0.000000 1.000000 -0.000000
vn 0.000000 1.000000 -0.000000
vn 0.000000 1.000000 0.000000
vn 0.000000 1.000000 0.000000
vn 0.000000 1.000000 0.000000
vn 0.000000 1.000000 0.000000
vn 0.000000 1.000000 0.000000
vn 0.000000 1.000000 0.000000
vn 0.000000 1.000000 0.000000
vn 0.000000 1.000000 0.000000
vn 0.000000 1.000000 0.000000
vn 0.000000 1.000000 0.000000
vn 0.000000 1.000000 0.000000
vn 0.000000 1.000000 0.000000
s 1
g pCone3
usemtl initialShadingGroup
f 1/1/1 14/14/2 2/2/3
f 14/14/2 13/13/4 2/2/3
f 13/13/4 12/12/5 2/2/3
f 12/12/5 11/11/6 2/2/3
f 11/11/6 10/10/7 2/2/3
f 10/10/7 9/9/8 2/2/3
f 9/9/8 8/8/9 2/2/3
f 8/8/9 7/7/10 2/2/3
f 7/7/10 6/6/11 2/2/3
f 6/6/11 5/5/12 2/2/3
f 5/5/12 4/4/13 2/2/3
f 4/4/13 3/3/14 2/2/3
s 2
f 1/15/15 2/16/16 15/30/17
f 2/16/16 3/17/18 15/30/17
f 3/17/18 4/18/19 15/30/17
f 4/18/19 5/19/20 15/30/17
f 5/19/20 6/20/21 15/30/17
f 6/20/21 7/21/22 15/30/17
f 7/21/22 8/22/23 15/30/17
f 8/22/23 9/23/24 15/30/17
f 9/23/24 10/24/25 15/30/17
f 10/24/25 11/25/26 15/30/17
f 11/25/26 12/26/27 15/30/17
f 12/26/27 13/27/28 15/30/17
f 13/27/28 14/28/29 15/30/17
f 14/28/29 1/29/15 15/30/17
s 3
f 16/31/30 29/32/31 17/44/32
f 29/32/31 28/33/33 17/44/32
f 28/33/33 27/34/34 17/44/32
f 27/34/34 26/35/35 17/44/32
f 26/35/35 25/36/36 17/44/32
f 25/36/36 24/37/37 17/44/32
f 24/37/37 23/38/38 17/44/32
f 23/38/38 22/39/39 17/44/32
f 22/39/39 21/40/40 17/44/32
f 21/40/40 20/41/41 17/44/32
f 20/41/41 19/42/42 17/44/32
f 19/42/42 18/43/43 17/44/32
s 4
f 16/45/44 17/46/45 30/47/46
f 17/46/45 18/48/47 30/47/46
f 18/48/47 19/49/48 30/47/46
f 19/49/48 20/50/49 30/47/46
f 20/50/49 21/51/50 30/47/46
f 21/51/50 22/52/51 30/47/46
f 22/52/51 23/53/52 30/47/46
f 23/53/52 24/54/53 30/47/46
f 24/54/53 25/55/54 30/47/46
f 25/55/54 26/56/55 30/47/46
f 26/56/55 27/57/56 30/47/46
f 27/57/56 28/58/57 30/47/46
f 28/58/57 29/59/58 30/47/46
f 29/59/58 16/60/44 30/47/46
s 5
f 31/61/59 32/62/60 47/64/61
f 47/64/61 32/62/60 48/63/62
f 32/62/60 33/65/63 48/63/62
f 48/63/62 33/65/63 49/66/64
f 33/65/63 34/67/65 49/66/64
f 49/66/64 34/67/65 50/68/66
f 34/67/65 35/69/67 50/68/66
f 50/68/66 35/69/67 51/70/68
f 35/69/67 36/71/69 51/70/68
f 51/70/68 36/71/69 52/72/70
f 36/71/69 37/73/71 52/72/70
f 52/72/70 37/73/71 53/74/72
f 37/73/71 38/75/73 53/74/72
f 53/74/72 38/75/73 54/76/74
f 38/75/73 39/77/75 54/76/74
f 54/76/74 39/77/75 55/78/76
f 39/77/75 40/79/77 55/78/76
f 55/78/76 40/79/77 56/80/78
f 40/79/77 41/81/79 56/80/78
f 56/80/78 41/81/79 57/82/80
f 41/81/79 42/83/81 57/82/80
f 57/82/80 42/83/81 58/84/82
f 42/83/81 43/85/83 58/84/82
f 58/84/82 43/85/83 59/86/84
f 43/85/83 44/87/85 59/86/84
f 59/86/84 44/87/85 60/88/86
f 44/87/85 45/89/87 60/88/86
f 60/88/86 45/89/87 61/90/88
f 45/89/87 46/91/89 61/90/88
f 61/90/88 46/91/89 62/92/90
f 46/91/89 31/93/59 62/92/90
f 62/92/90 31/93/59 47/94/61
s 6
f 32/95/91 31/96/92 63/97/93
f 33/98/94 32/95/91 63/97/93
f 34/99/95 33/98/94 63/97/93
f 35/100/96 34/99/95 63/97/93
f 36/101/97 35/100/96 63/97/93
f 37/102/98 36/101/97 63/97/93
f 38/103/99 37/102/98 63/97/93
f 39/104/100 38/103/99 63/97/93
f 40/105/101 39/104/100 63/97/93
f 41/106/102 40/105/101 63/97/93
f 42/107/103 41/106/102 63/97/93
f 43/108/104 42/107/103 63/97/93
f 44/109/105 43/108/104 63/97/93
f 45/110/106 44/109/105 63/97/93
f 46/111/107 45/110/106 63/97/93
f 31/96/92 46/111/107 63/97/93
s 7
f 47/112/108 48/113/109 64/114/110
f 48/113/109 49/115/111 64/114/110
f 49/115/111 50/116/112 64/114/110
f 50/116/112 51/117/113 64/114/110
f 51/117/113 52/118/114 64/114/110
f 52/118/114 53/119/115 64/114/110
f 53/119/115 54/120/116 64/114/110
f 54/120/116 55/121/117 64/114/110
f 55/121/117 56/122/118 64/114/110
f 56/122/118 57/123/119 64/114/110
f 57/123/119 58/124/120 64/114/110
f 58/124/120 59/125/121 64/114/110
f 59/125/121 60/126/122 64/114/110
f 60/126/122 61/127/123 64/114/110
f 61/127/123 62/128/124 64/114/110
f 62/128/124 47/112/108 64/114/110
