# This file uses centimeters as units for non-parametric coordinates.

mtllib Tree_High.mtl
g default
v 0.351252 0.659456 -0.114129
v 0.298793 0.659456 -0.217086
v 0.217086 0.659456 -0.298793
v 0.114129 0.659456 -0.351252
v 0.000000 0.659456 -0.369328
v -0.114129 0.659456 -0.351252
v -0.217086 0.659456 -0.298793
v -0.298793 0.659456 -0.217086
v -0.351252 0.659456 -0.114129
v -0.369328 0.659456 0.000000
v -0.351252 0.659456 0.114129
v -0.298793 0.659456 0.217086
v -0.217086 0.659456 0.298793
v -0.114129 0.659456 0.351252
v -0.000000 0.659456 0.369328
v 0.114129 0.659456 0.351252
v 0.217086 0.659456 0.298793
v 0.298793 0.659456 0.217086
v 0.351252 0.659456 0.114129
v 0.369328 0.659456 0.000000
v 0.000000 1.209013 0.000000
v 0.475529 0.366838 -0.154509
v 0.404509 0.366838 -0.293893
v 0.293893 0.366838 -0.404509
v 0.154509 0.366838 -0.475529
v 0.000000 0.366838 -0.500000
v -0.154509 0.366838 -0.475528
v -0.293893 0.366838 -0.404509
v -0.404509 0.366838 -0.293893
v -0.475528 0.366838 -0.154509
v -0.500000 0.366838 0.000000
v -0.475528 0.366838 0.154509
v -0.404509 0.366838 0.293893
v -0.293893 0.366838 0.404509
v -0.154509 0.366838 0.475528
v -0.000000 0.366838 0.500000
v 0.154508 0.366838 0.475528
v 0.293893 0.366838 0.404509
v 0.404509 0.366838 0.293893
v 0.475528 0.366838 0.154509
v 0.500000 0.366838 0.000000
v 0.000000 0.916395 0.000000
v 0.097318 0.000000 -0.031620
v 0.082783 0.000000 -0.060146
v 0.060146 0.000000 -0.082783
v 0.031620 0.000000 -0.097318
v 0.000000 0.000000 -0.102326
v -0.031620 0.000000 -0.097318
v -0.060146 0.000000 -0.082783
v -0.082783 0.000000 -0.060146
v -0.097318 0.000000 -0.031620
v -0.102326 0.000000 0.000000
v -0.097318 0.000000 0.031620
v -0.082783 0.000000 0.060146
v -0.060146 0.000000 0.082783
v -0.031620 0.000000 0.097318
v -0.000000 0.000000 0.102326
v 0.031620 0.000000 0.097318
v 0.060146 0.000000 0.082783
v 0.082783 0.000000 0.060146
v 0.097318 0.000000 0.031620
v 0.102326 0.000000 0.000000
v 0.097318 0.366838 -0.031620
v 0.082783 0.366838 -0.060146
v 0.060146 0.366838 -0.082783
v 0.031620 0.366838 -0.097318
v 0.000000 0.366838 -0.102326
v -0.031620 0.366838 -0.097318
v -0.060146 0.366838 -0.082783
v -0.082783 0.366838 -0.060146
v -0.097318 0.366838 -0.031620
v -0.102326 0.366838 0.000000
v -0.097318 0.366838 0.031620
v -0.082783 0.366838 0.060146
v -0.060146 0.366838 0.082783
v -0.031620 0.366838 0.097318
v -0.000000 0.366838 0.102326
v 0.031620 0.366838 0.097318
v 0.060146 0.366838 0.082783
v 0.082783 0.366838 0.060146
v 0.097318 0.366838 0.031620
v 0.102326 0.366838 0.000000
v 0.000000 0.000000 0.000000
v 0.000000 0.366838 0.000000
vt 0.737764 0.172746
vt 0.702254 0.103054
vt 0.646946 0.047746
vt 0.577254 0.012236
vt 0.500000 -0.000000
vt 0.422746 0.012236
vt 0.353054 0.047746
vt 0.297746 0.103054
vt 0.262236 0.172746
vt 0.250000 0.250000
vt 0.262236 0.327254
vt 0.297746 0.396946
vt 0.353054 0.452254
vt 0.422746 0.487764
vt 0.500000 0.500000
vt 0.577254 0.487764
vt 0.646946 0.452254
vt 0.702254 0.396946
vt 0.737764 0.327254
vt 0.750000 0.250000
vt 0.250000 0.500000
vt 0.275000 0.500000
vt 0.300000 0.500000
vt 0.325000 0.500000
vt 0.350000 0.500000
vt 0.375000 0.500000
vt 0.400000 0.500000
vt 0.425000 0.500000
vt 0.450000 0.500000
vt 0.475000 0.500000
vt 0.500000 0.500000
vt 0.525000 0.500000
vt 0.550000 0.500000
vt 0.575000 0.500000
vt 0.600000 0.500000
vt 0.625000 0.500000
vt 0.650000 0.500000
vt 0.675000 0.500000
vt 0.700000 0.500000
vt 0.725000 0.500000
vt 0.750000 0.500000
vt 0.500000 1.000000
vt 0.737764 0.172746
vt 0.750000 0.250000
vt 0.737764 0.327254
vt 0.702254 0.396946
vt 0.646946 0.452254
vt 0.577254 0.487764
vt 0.500000 0.500000
vt 0.422746 0.487764
vt 0.353054 0.452254
vt 0.297746 0.396946
vt 0.262236 0.327254
vt 0.250000 0.250000
vt 0.262236 0.172746
vt 0.297746 0.103054
vt 0.353054 0.047746
vt 0.422746 0.012236
vt 0.500000 -0.000000
vt 0.577254 0.012236
vt 0.646946 0.047746
vt 0.702254 0.103054
vt 0.250000 0.500000
vt 0.275000 0.500000
vt 0.500000 1.000000
vt 0.300000 0.500000
vt 0.325000 0.500000
vt 0.350000 0.500000
vt 0.375000 0.500000
vt 0.400000 0.500000
vt 0.425000 0.500000
vt 0.450000 0.500000
vt 0.475000 0.500000
vt 0.500000 0.500000
vt 0.525000 0.500000
vt 0.550000 0.500000
vt 0.575000 0.500000
vt 0.600000 0.500000
vt 0.625000 0.500000
vt 0.650000 0.500000
vt 0.675000 0.500000
vt 0.700000 0.500000
vt 0.725000 0.500000
vt 0.750000 0.500000
vt 0.375000 0.312500
vt 0.387500 0.312500
vt 0.387500 0.688440
vt 0.375000 0.688440
vt 0.400000 0.312500
vt 0.400000 0.688440
vt 0.412500 0.312500
vt 0.412500 0.688440
vt 0.425000 0.312500
vt 0.425000 0.688440
vt 0.437500 0.312500
vt 0.437500 0.688440
vt 0.450000 0.312500
vt 0.450000 0.688440
vt 0.462500 0.312500
vt 0.462500 0.688440
vt 0.475000 0.312500
vt 0.475000 0.688440
vt 0.487500 0.312500
vt 0.487500 0.688440
vt 0.500000 0.312500
vt 0.500000 0.688440
vt 0.512500 0.312500
vt 0.512500 0.688440
vt 0.525000 0.312500
vt 0.525000 0.688440
vt 0.537500 0.312500
vt 0.537500 0.688440
vt 0.550000 0.312500
vt 0.550000 0.688440
vt 0.562500 0.312500
vt 0.562500 0.688440
vt 0.575000 0.312500
vt 0.575000 0.688440
vt 0.587500 0.312500
vt 0.587500 0.688440
vt 0.600000 0.312500
vt 0.600000 0.688440
vt 0.612500 0.312500
vt 0.612500 0.688440
vt 0.625000 0.312500
vt 0.625000 0.688440
vt 0.626409 0.064408
vt 0.648603 0.107966
vt 0.500000 0.150000
vt 0.591842 0.029841
vt 0.548284 0.007647
vt 0.500000 -0.000000
vt 0.451716 0.007647
vt 0.408159 0.029841
vt 0.373591 0.064409
vt 0.351397 0.107966
vt 0.343750 0.156250
vt 0.351397 0.204534
vt 0.373591 0.248091
vt 0.408159 0.282659
vt 0.451716 0.304853
vt 0.500000 0.312500
vt 0.548284 0.304853
vt 0.591841 0.282659
vt 0.626409 0.248091
vt 0.648603 0.204534
vt 0.656250 0.156250
vt 0.648603 0.892034
vt 0.626409 0.935591
vt 0.500000 0.837500
vt 0.591841 0.970159
vt 0.548284 0.992353
vt 0.500000 1.000000
vt 0.451716 0.992353
vt 0.408159 0.970159
vt 0.373591 0.935591
vt 0.351397 0.892034
vt 0.343750 0.843750
vt 0.351397 0.795466
vt 0.373591 0.751909
vt 0.408159 0.717341
vt 0.451716 0.695147
vt 0.500000 0.687500
vt 0.548284 0.695147
vt 0.591842 0.717341
vt 0.626409 0.751908
vt 0.648603 0.795466
vt 0.656250 0.843750
vn 0.000000 -1.000000 -0.000002
vn 0.000000 -1.000000 0.000001
vn 0.000000 -1.000000 0.000000
vn 0.000000 -1.000000 -0.000000
vn 0.000000 -1.000000 0.000000
vn 0.000000 -1.000000 -0.000000
vn 0.000000 -1.000000 0.000000
vn 0.000000 -1.000000 -0.000000
vn 0.000000 -1.000000 0.000000
vn 0.000000 -1.000000 -0.000000
vn 0.000000 -1.000000 0.000000
vn 0.000000 -1.000000 0.000001
vn 0.000000 -1.000000 0.000000
vn 0.000000 -1.000000 -0.000001
vn 0.000000 -1.000000 -0.000001
vn 0.000000 -1.000000 0.000000
vn 0.000000 -1.000000 0.000001
vn 0.000000 -1.000000 -0.000000
vn 0.000000 -1.000000 -0.000002
vn 0.000000 -1.000000 0.000000
vn 0.789362 0.557788 -0.256478
vn 0.671471 0.557788 -0.487852
vn 0.000000 1.000000 -0.000000
vn 0.487852 0.557788 -0.671471
vn 0.256479 0.557788 -0.789361
vn -0.000000 0.557788 -0.829984
vn -0.256479 0.557788 -0.789361
vn -0.487852 0.557788 -0.671471
vn -0.671471 0.557788 -0.487852
vn -0.789361 0.557788 -0.256479
vn -0.829984 0.557788 0.000000
vn -0.789361 0.557788 0.256479
vn -0.671471 0.557788 0.487852
vn -0.487852 0.557788 0.671471
vn -0.256479 0.557788 0.789361
vn 0.000000 0.557788 0.829984
vn 0.256479 0.557788 0.789361
vn 0.487852 0.557788 0.671471
vn 0.671471 0.557788 0.487852
vn 0.789361 0.557788 0.256479
vn 0.829984 0.557788 0.000000
vn 0.000000 -1.000000 0.000000
vn 0.000000 -1.000000 0.000000
vn 0.000000 -1.000000 0.000000
vn 0.000000 -1.000000 0.000000
vn 0.000000 -1.000000 -0.000000
vn 0.000000 -1.000000 -0.000000
vn 0.000000 -1.000000 0.000000
vn 0.000000 -1.000000 -0.000000
vn 0.000000 -1.000000 0.000000
vn 0.000000 -1.000000 0.000000
vn 0.000000 -1.000000 0.000000
vn 0.000000 -1.000000 0.000000
vn 0.000000 -1.000000 0.000000
vn 0.000000 -1.000000 -0.000000
vn 0.000000 -1.000000 -0.000000
vn 0.000000 -1.000000 0.000001
vn 0.000000 -1.000000 0.000000
vn 0.000000 -1.000000 0.000000
vn 0.000000 -1.000000 0.000000
vn 0.000000 -1.000000 0.000000
vn 0.703468 0.672970 -0.228570
vn 0.598406 0.672970 -0.434767
vn -0.000000 1.000000 0.000000
vn 0.434767 0.672970 -0.598406
vn 0.228570 0.672970 -0.703468
vn -0.000000 0.672970 -0.739670
vn -0.228571 0.672970 -0.703468
vn -0.434767 0.672970 -0.598406
vn -0.598406 0.672970 -0.434767
vn -0.703468 0.672970 -0.228571
vn -0.739670 0.672970 0.000000
vn -0.703468 0.672970 0.228571
vn -0.598406 0.672970 0.434767
vn -0.434767 0.672970 0.598406
vn -0.228571 0.672970 0.703468
vn 0.000000 0.672970 0.739670
vn 0.228571 0.672970 0.703468
vn 0.434767 0.672970 0.598406
vn 0.598406 0.672970 0.434767
vn 0.703468 0.672970 0.228571
vn 0.739670 0.672970 0.000001
vn 0.951057 0.000000 -0.309016
vn 0.809017 0.000000 -0.587785
vn 0.951057 0.000000 -0.309016
vn 0.809017 0.000000 -0.587785
vn 0.587785 0.000000 -0.809017
vn 0.587785 0.000000 -0.809017
vn 0.309017 0.000000 -0.951057
vn 0.309017 0.000000 -0.951057
vn -0.000000 0.000000 -1.000000
vn -0.000000 0.000000 -1.000000
vn -0.309017 0.000000 -0.951056
vn -0.309017 0.000000 -0.951056
vn -0.587785 0.000000 -0.809017
vn -0.587785 0.000000 -0.809017
vn -0.809017 0.000000 -0.587785
vn -0.809017 0.000000 -0.587785
vn -0.951057 0.000000 -0.309017
vn -0.951057 0.000000 -0.309017
vn -1.000000 0.000000 -0.000000
vn -1.000000 0.000000 0.000000
vn -0.951057 0.000000 0.309017
vn -0.951057 0.000000 0.309017
vn -0.809017 0.000000 0.587785
vn -0.809017 0.000000 0.587785
vn -0.587785 0.000000 0.809017
vn -0.587785 0.000000 0.809017
vn -0.309017 0.000000 0.951057
vn -0.309017 0.000000 0.951057
vn -0.000000 0.000000 1.000000
vn 0.000000 0.000000 1.000000
vn 0.309017 0.000000 0.951056
vn 0.309017 0.000000 0.951057
vn 0.587786 0.000000 0.809017
vn 0.587785 0.000000 0.809017
vn 0.809017 0.000000 0.587785
vn 0.809017 0.000000 0.587785
vn 0.951057 0.000000 0.309017
vn 0.951057 0.000000 0.309017
vn 1.000000 0.000000 0.000001
vn 1.000000 0.000000 0.000001
vn 0.000000 -1.000000 0.000000
vn 0.000000 -1.000000 0.000000
vn 0.000000 -1.000000 0.000000
vn 0.000000 -1.000000 0.000000
vn 0.000000 -1.000000 0.000000
vn 0.000000 -1.000000 0.000000
vn 0.000000 -1.000000 0.000000
vn 0.000000 -1.000000 0.000000
vn 0.000000 -1.000000 0.000000
vn 0.000000 -1.000000 0.000000
vn 0.000000 -1.000000 0.000000
vn 0.000000 -1.000000 0.000000
vn 0.000000 -1.000000 0.000000
vn 0.000000 -1.000000 0.000000
vn 0.000000 -1.000000 0.000000
vn 0.000000 -1.000000 0.000000
vn 0.000000 -1.000000 0.000000
vn 0.000000 -1.000000 0.000000
vn 0.000000 -1.000000 0.000000
vn 0.000000 -1.000000 0.000000
vn 0.000000 -1.000000 0.000000
vn 0.000000 1.000000 0.000000
vn 0.000000 1.000000 0.000000
vn 0.000000 1.000000 0.000000
vn 0.000000 1.000000 0.000001
vn 0.000000 1.000000 0.000001
vn 0.000000 1.000000 0.000000
vn 0.000000 1.000000 0.000000
vn 0.000000 1.000000 0.000000
vn 0.000000 1.000000 0.000001
vn 0.000000 1.000000 0.000001
vn 0.000000 1.000000 0.000000
vn 0.000000 1.000000 0.000000
vn 0.000000 1.000000 0.000000
vn 0.000000 1.000000 0.000000
vn 0.000000 1.000000 0.000000
vn 0.000000 1.000000 0.000000
vn 0.000000 1.000000 0.000000
vn 0.000000 1.000000 0.000000
vn 0.000000 1.000000 -0.000001
vn 0.000000 1.000000 -0.000001
vn 0.000000 1.000000 0.000000
s 1
g pCone3
usemtl initialShadingGroup
f 1/1/1 20/20/2 2/2/3
f 20/20/2 19/19/4 2/2/3
f 19/19/4 18/18/5 2/2/3
f 18/18/5 17/17/6 2/2/3
f 17/17/6 16/16/7 2/2/3
f 16/16/7 15/15/8 2/2/3
f 15/15/8 14/14/9 2/2/3
f 14/14/9 13/13/10 2/2/3
f 13/13/10 12/12/11 2/2/3
f 12/12/11 11/11/12 2/2/3
f 11/11/12 10/10/13 2/2/3
f 10/10/13 9/9/14 2/2/3
f 9/9/14 8/8/15 2/2/3
f 8/8/15 7/7/16 2/2/3
f 7/7/16 6/6/17 2/2/3
f 6/6/17 5/5/18 2/2/3
f 5/5/18 4/4/19 2/2/3
f 4/4/19 3/3/20 2/2/3
s 2
f 1/21/21 2/22/22 21/42/23
f 2/22/22 3/23/24 21/42/23
f 3/23/24 4/24/25 21/42/23
f 4/24/25 5/25/26 21/42/23
f 5/25/26 6/26/27 21/42/23
f 6/26/27 7/27/28 21/42/23
f 7/27/28 8/28/29 21/42/23
f 8/28/29 9/29/30 21/42/23
f 9/29/30 10/30/31 21/42/23
f 10/30/31 11/31/32 21/42/23
f 11/31/32 12/32/33 21/42/23
f 12/32/33 13/33/34 21/42/23
f 13/33/34 14/34/35 21/42/23
f 14/34/35 15/35/36 21/42/23
f 15/35/36 16/36/37 21/42/23
f 16/36/37 17/37/38 21/42/23
f 17/37/38 18/38/39 21/42/23
f 18/38/39 19/39/40 21/42/23
f 19/39/40 20/40/41 21/42/23
f 20/40/41 1/41/21 21/42/23
s 3
f 22/43/42 41/44/43 23/62/44
f 41/44/43 40/45/45 23/62/44
f 40/45/45 39/46/46 23/62/44
f 39/46/46 38/47/47 23/62/44
f 38/47/47 37/48/48 23/62/44
f 37/48/48 36/49/49 23/62/44
f 36/49/49 35/50/50 23/62/44
f 35/50/50 34/51/51 23/62/44
f 34/51/51 33/52/52 23/62/44
f 33/52/52 32/53/53 23/62/44
f 32/53/53 31/54/54 23/62/44
f 31/54/54 30/55/55 23/62/44
f 30/55/55 29/56/56 23/62/44
f 29/56/56 28/57/57 23/62/44
f 28/57/57 27/58/58 23/62/44
f 27/58/58 26/59/59 23/62/44
f 26/59/59 25/60/60 23/62/44
f 25/60/60 24/61/61 23/62/44
s 4
f 22/63/62 23/64/63 42/65/64
f 23/64/63 24/66/65 42/65/64
f 24/66/65 25/67/66 42/65/64
f 25/67/66 26/68/67 42/65/64
f 26/68/67 27/69/68 42/65/64
f 27/69/68 28/70/69 42/65/64
f 28/70/69 29/71/70 42/65/64
f 29/71/70 30/72/71 42/65/64
f 30/72/71 31/73/72 42/65/64
f 31/73/72 32/74/73 42/65/64
f 32/74/73 33/75/74 42/65/64
f 33/75/74 34/76/75 42/65/64
f 34/76/75 35/77/76 42/65/64
f 35/77/76 36/78/77 42/65/64
f 36/78/77 37/79/78 42/65/64
f 37/79/78 38/80/79 42/65/64
f 38/80/79 39/81/80 42/65/64
f 39/81/80 40/82/81 42/65/64
f 40/82/81 41/83/82 42/65/64
f 41/83/82 22/84/62 42/65/64
s 5
f 43/85/83 44/86/84 63/88/85
f 63/88/85 44/86/84 64/87/86
f 44/86/84 45/89/87 64/87/86
f 64/87/86 45/89/87 65/90/88
f 45/89/87 46/91/89 65/90/88
f 65/90/88 46/91/89 66/92/90
f 46/91/89 47/93/91 66/92/90
f 66/92/90 47/93/91 67/94/92
f 47/93/91 48/95/93 67/94/92
f 67/94/92 48/95/93 68/96/94
f 48/95/93 49/97/95 68/96/94
f 68/96/94 49/97/95 69/98/96
f 49/97/95 50/99/97 69/98/96
f 69/98/96 50/99/97 70/100/98
f 50/99/97 51/101/99 70/100/98
f 70/100/98 51/101/99 71/102/100
f 51/101/99 52/103/101 71/102/100
f 71/102/100 52/103/101 72/104/102
f 52/103/101 53/105/103 72/104/102
f 72/104/102 53/105/103 73/106/104
f 53/105/103 54/107/105 73/106/104
f 73/106/104 54/107/105 74/108/106
f 54/107/105 55/109/107 74/108/106
f 74/108/106 55/109/107 75/110/108
f 55/109/107 56/111/109 75/110/108
f 75/110/108 56/111/109 76/112/110
f 56/111/109 57/113/111 76/112/110
f 76/112/110 57/113/111 77/114/112
f 57/113/111 58/115/113 77/114/112
f 77/114/112 58/115/113 78/116/114
f 58/115/113 59/117/115 78/116/114
f 78/116/114 59/117/115 79/118/116
f 59/117/115 60/119/117 79/118/116
f 79/118/116 60/119/117 80/120/118
f 60/119/117 61/121/119 80/120/118
f 80/120/118 61/121/119 81/122/120
f 61/121/119 62/123/121 81/122/120
f 81/122/120 62/123/121 82/124/122
f 62/123/121 43/125/83 82/124/122
f 82/124/122 43/125/83 63/126/85
s 6
f 44/127/123 43/128/124 83/129/125
f 45/130/126 44/127/123 83/129/125
f 46/131/127 45/130/126 83/129/125
f 47/132/128 46/131/127 83/129/125
f 48/133/129 47/132/128 83/129/125
f 49/134/130 48/133/129 83/129/125
f 50/135/131 49/134/130 83/129/125
f 51/136/132 50/135/131 83/129/125
f 52/137/133 51/136/132 83/129/125
f 53/138/134 52/137/133 83/129/125
f 54/139/135 53/138/134 83/129/125
f 55/140/136 54/139/135 83/129/125
f 56/141/137 55/140/136 83/129/125
f 57/142/138 56/141/137 83/129/125
f 58/143/139 57/142/138 83/129/125
f 59/144/140 58/143/139 83/129/125
f 60/145/141 59/144/140 83/129/125
f 61/146/142 60/145/141 83/129/125
f 62/147/143 61/146/142 83/129/125
f 43/128/124 62/147/143 83/129/125
s 7
f 63/148/144 64/149/145 84/150/146
f 64/149/145 65/151/147 84/150/146
f 65/151/147 66/152/148 84/150/146
f 66/152/148 67/153/149 84/150/146
f 67/153/149 68/154/150 84/150/146
f 68/154/150 69/155/151 84/150/146
f 69/155/151 70/156/152 84/150/146
f 70/156/152 71/157/153 84/150/146
f 71/157/153 72/158/154 84/150/146
f 72/158/154 73/159/155 84/150/146
f 73/159/155 74/160/156 84/150/146
f 74/160/156 75/161/157 84/150/146
f 75/161/157 76/162/158 84/150/146
f 76/162/158 77/163/159 84/150/146
f 77/163/159 78/164/160 84/150/146
f 78/164/160 79/165/161 84/150/146
f 79/165/161 80/166/162 84/150/146
f 80/166/162 81/167/163 84/150/146
f 81/167/163 82/168/164 84/150/146
f 82/168/164 63/148/144 84/150/146
