# This file uses centimeters as units for non-parametric coordinates.

mtllib TreeMed.mtl
g default
v -0.629598 0.366838 -0.216942
v -0.768337 0.366838 -0.390916
v -0.968821 0.366838 -0.487464
v -1.191342 0.366838 -0.487464
v -1.391827 0.366838 -0.390916
v -1.530566 0.366838 -0.216942
v -1.580082 0.366838 0.000000
v -1.530566 0.366838 0.216942
v -1.391827 0.366838 0.390916
v -1.191343 0.366838 0.487464
v -0.968822 0.366838 0.487464
v -0.768337 0.366838 0.390916
v -0.629598 0.366838 0.216942
v -0.580082 0.366838 0.000000
v -1.080082 0.916395 0.000000
v -0.739192 0.654227 -0.164164
v -0.844179 0.654227 -0.295813
v -0.995889 0.654227 -0.368873
v -1.164275 0.654227 -0.368873
v -1.315985 0.654227 -0.295813
v -1.420972 0.654227 -0.164164
v -1.458441 0.654227 0.000000
v -1.420972 0.654227 0.164164
v -1.315985 0.654227 0.295813
v -1.164275 0.654227 0.368873
v -0.995889 0.654227 0.368873
v -0.844179 0.654227 0.295813
v -0.739192 0.654227 0.164164
v -0.701722 0.654227 0.000000
v -1.080082 1.203784 0.000000
vt 0.725242 0.141529
vt 0.750000 0.250000
vt 0.655872 0.054542
vt 0.725242 0.358471
vt 0.655872 0.445458
vt 0.555630 0.493732
vt 0.444370 0.493732
vt 0.344128 0.445458
vt 0.274758 0.358471
vt 0.250000 0.250000
vt 0.274758 0.141529
vt 0.344128 0.054542
vt 0.444370 0.006268
vt 0.555630 0.006268
vt 0.250000 0.500000
vt 0.285714 0.500000
vt 0.500000 1.000000
vt 0.321429 0.500000
vt 0.357143 0.500000
vt 0.392857 0.500000
vt 0.428571 0.500000
vt 0.464286 0.500000
vt 0.500000 0.500000
vt 0.535714 0.500000
vt 0.571429 0.500000
vt 0.607143 0.500000
vt 0.642857 0.500000
vt 0.678571 0.500000
vt 0.714286 0.500000
vt 0.750000 0.500000
vt 0.725242 0.141529
vt 0.750000 0.250000
vt 0.655872 0.054542
vt 0.725242 0.358471
vt 0.655872 0.445458
vt 0.555630 0.493732
vt 0.444370 0.493732
vt 0.344128 0.445458
vt 0.274758 0.358471
vt 0.250000 0.250000
vt 0.274758 0.141529
vt 0.344128 0.054542
vt 0.444370 0.006268
vt 0.555630 0.006268
vt 0.250000 0.500000
vt 0.285714 0.500000
vt 0.500000 1.000000
vt 0.321429 0.500000
vt 0.357143 0.500000
vt 0.392857 0.500000
vt 0.428571 0.500000
vt 0.464286 0.500000
vt 0.500000 0.500000
vt 0.535714 0.500000
vt 0.571429 0.500000
vt 0.607143 0.500000
vt 0.642857 0.500000
vt 0.678571 0.500000
vt 0.714286 0.500000
vt 0.750000 0.500000
vn 0.000000 -1.000000 0.000000
vn 0.000000 -1.000000 0.000000
vn 0.000000 -1.000000 0.000000
vn 0.000000 -1.000000 0.000000
vn 0.000000 -1.000000 0.000000
vn 0.000000 -1.000000 0.000000
vn 0.000000 -1.000000 0.000000
vn 0.000000 -1.000000 0.000000
vn 0.000000 -1.000000 0.000000
vn 0.000000 -1.000000 0.000000
vn 0.000000 -1.000000 0.000000
vn 0.000000 -1.000000 0.000000
vn 0.000000 -1.000000 0.000000
vn 0.000000 -1.000000 0.000000
vn 0.000000 -1.000000 0.000000
vn 0.000000 -1.000000 0.000000
vn 0.000000 -1.000000 0.000000
vn 0.000000 -1.000000 0.000000
vn 0.000000 -1.000000 0.000000
vn 0.000000 -1.000000 0.000000
vn 0.000000 -1.000000 0.000000
vn 0.000000 -1.000000 0.000000
vn 0.000000 -1.000000 0.000000
vn 0.000000 -1.000000 0.000000
vn 0.000000 -1.000000 0.000000
vn 0.000000 -1.000000 0.000000
vn 0.000000 -1.000000 0.000000
vn 0.000000 -1.000000 0.000000
vn 0.000000 -1.000000 0.000000
vn 0.000000 -1.000000 0.000000
vn 0.000000 -1.000000 0.000000
vn 0.000000 -1.000000 0.000000
vn 0.000000 -1.000000 0.000000
vn 0.000000 -1.000000 0.000000
vn 0.000000 -1.000000 0.000000
vn 0.000000 -1.000000 0.000000
vn 0.666420 0.672969 -0.320931
vn 0.461177 0.672970 -0.578297
vn 0.000000 1.000000 0.000000
vn 0.461177 0.672970 -0.578297
vn 0.164592 0.672970 -0.721125
vn 0.000000 1.000000 0.000000
vn 0.164592 0.672970 -0.721125
vn -0.164592 0.672969 -0.721125
vn 0.000000 1.000000 0.000000
vn -0.164592 0.672969 -0.721125
vn -0.461177 0.672969 -0.578298
vn 0.000000 1.000000 0.000000
vn -0.461177 0.672969 -0.578298
vn -0.666420 0.672969 -0.320931
vn 0.000000 1.000000 0.000000
vn -0.666420 0.672969 -0.320931
vn -0.739670 0.672970 0.000000
vn 0.000000 1.000000 0.000000
vn -0.739670 0.672970 0.000000
vn -0.666420 0.672969 0.320931
vn 0.000000 1.000000 0.000000
vn -0.666420 0.672969 0.320931
vn -0.461177 0.672969 0.578297
vn 0.000000 1.000000 0.000000
vn -0.461177 0.672969 0.578297
vn -0.164592 0.672969 0.721125
vn 0.000000 1.000000 0.000000
vn -0.164592 0.672969 0.721125
vn 0.164592 0.672969 0.721125
vn 0.000000 1.000000 0.000000
vn 0.164592 0.672969 0.721125
vn 0.461177 0.672970 0.578298
vn 0.000000 1.000000 0.000000
vn 0.461177 0.672970 0.578298
vn 0.666420 0.672970 0.320931
vn 0.000000 1.000000 0.000000
vn 0.666420 0.672970 0.320931
vn 0.739670 0.672970 0.000000
vn 0.000000 1.000000 0.000000
vn 0.739670 0.672970 0.000000
vn 0.666420 0.672969 -0.320931
vn 0.000000 1.000000 0.000000
vn 0.000000 -1.000000 0.000000
vn 0.000000 -1.000000 0.000000
vn 0.000000 -1.000000 0.000000
vn 0.000000 -1.000000 0.000000
vn 0.000000 -1.000000 0.000000
vn 0.000000 -1.000000 0.000000
vn 0.000000 -1.000000 0.000000
vn 0.000000 -1.000000 0.000000
vn 0.000000 -1.000000 0.000000
vn 0.000000 -1.000000 0.000000
vn 0.000000 -1.000000 0.000000
vn 0.000000 -1.000000 0.000000
vn 0.000000 -1.000000 0.000000
vn 0.000000 -1.000000 0.000000
vn 0.000000 -1.000000 0.000000
vn 0.000000 -1.000000 0.000000
vn 0.000000 -1.000000 0.000000
vn 0.000000 -1.000000 0.000000
vn 0.000000 -1.000000 0.000000
vn 0.000000 -1.000000 0.000000
vn 0.000000 -1.000000 0.000000
vn 0.000000 -1.000000 0.000000
vn 0.000000 -1.000000 0.000000
vn 0.000000 -1.000000 0.000000
vn 0.000000 -1.000000 0.000000
vn 0.000000 -1.000000 0.000000
vn 0.000000 -1.000000 0.000000
vn 0.000000 -1.000000 0.000000
vn 0.000000 -1.000000 0.000001
vn 0.000000 -1.000000 0.000000
vn 0.000000 -1.000000 0.000001
vn 0.000000 -1.000000 0.000000
vn 0.000000 -1.000000 0.000000
vn 0.000000 -1.000000 0.000000
vn 0.000000 -1.000000 -0.000002
vn 0.000000 -1.000000 0.000000
vn 0.742096 0.567077 -0.357375
vn 0.513547 0.567077 -0.643967
vn 0.000000 1.000000 0.000000
vn 0.513547 0.567077 -0.643967
vn 0.183283 0.567077 -0.803014
vn 0.000000 1.000000 0.000000
vn 0.183283 0.567077 -0.803014
vn -0.183283 0.567077 -0.803014
vn 0.000000 1.000000 0.000000
vn -0.183283 0.567077 -0.803014
vn -0.513546 0.567077 -0.643967
vn 0.000000 1.000000 0.000000
vn -0.513546 0.567077 -0.643967
vn -0.742096 0.567077 -0.357375
vn 0.000000 1.000000 0.000000
vn -0.742096 0.567077 -0.357375
vn -0.823665 0.567077 0.000000
vn 0.000000 1.000000 0.000000
vn -0.823665 0.567077 0.000000
vn -0.742096 0.567077 0.357375
vn 0.000000 1.000000 0.000000
vn -0.742096 0.567077 0.357375
vn -0.513547 0.567077 0.643967
vn 0.000000 1.000000 0.000000
vn -0.513547 0.567077 0.643967
vn -0.183283 0.567077 0.803014
vn 0.000000 1.000000 0.000000
vn -0.183283 0.567077 0.803014
vn 0.183282 0.567077 0.803014
vn 0.000000 1.000000 0.000000
vn 0.183282 0.567077 0.803014
vn 0.513546 0.567077 0.643967
vn 0.000000 1.000000 0.000000
vn 0.513546 0.567077 0.643967
vn 0.742096 0.567077 0.357375
vn 0.000000 1.000000 0.000000
vn 0.742096 0.567077 0.357375
vn 0.823665 0.567077 0.000000
vn 0.000000 1.000000 0.000000
vn 0.823665 0.567077 0.000000
vn 0.742096 0.567077 -0.357375
vn 0.000000 1.000000 0.000000
s off
g polySurface11
usemtl initialShadingGroup
f 1/1/1 14/2/2 2/3/3
f 14/2/4 13/4/5 2/3/6
f 13/4/7 12/5/8 2/3/9
f 12/5/10 11/6/11 2/3/12
f 11/6/13 10/7/14 2/3/15
f 10/7/16 9/8/17 2/3/18
f 9/8/19 8/9/20 2/3/21
f 8/9/22 7/10/23 2/3/24
f 7/10/25 6/11/26 2/3/27
f 6/11/28 5/12/29 2/3/30
f 5/12/31 4/13/32 2/3/33
f 4/13/34 3/14/35 2/3/36
f 1/15/37 2/16/38 15/17/39
f 2/16/40 3/18/41 15/17/42
f 3/18/43 4/19/44 15/17/45
f 4/19/46 5/20/47 15/17/48
f 5/20/49 6/21/50 15/17/51
f 6/21/52 7/22/53 15/17/54
f 7/22/55 8/23/56 15/17/57
f 8/23/58 9/24/59 15/17/60
f 9/24/61 10/25/62 15/17/63
f 10/25/64 11/26/65 15/17/66
f 11/26/67 12/27/68 15/17/69
f 12/27/70 13/28/71 15/17/72
f 13/28/73 14/29/74 15/17/75
f 14/29/76 1/30/77 15/17/78
f 16/31/79 29/32/80 17/33/81
f 29/32/82 28/34/83 17/33/84
f 28/34/85 27/35/86 17/33/87
f 27/35/88 26/36/89 17/33/90
f 26/36/91 25/37/92 17/33/93
f 25/37/94 24/38/95 17/33/96
f 24/38/97 23/39/98 17/33/99
f 23/39/100 22/40/101 17/33/102
f 22/40/103 21/41/104 17/33/105
f 21/41/106 20/42/107 17/33/108
f 20/42/109 19/43/110 17/33/111
f 19/43/112 18/44/113 17/33/114
f 16/45/115 17/46/116 30/47/117
f 17/46/118 18/48/119 30/47/120
f 18/48/121 19/49/122 30/47/123
f 19/49/124 20/50/125 30/47/126
f 20/50/127 21/51/128 30/47/129
f 21/51/130 22/52/131 30/47/132
f 22/52/133 23/53/134 30/47/135
f 23/53/136 24/54/137 30/47/138
f 24/54/139 25/55/140 30/47/141
f 25/55/142 26/56/143 30/47/144
f 26/56/145 27/57/146 30/47/147
f 27/57/148 28/58/149 30/47/150
f 28/58/151 29/59/152 30/47/153
f 29/59/154 16/60/155 30/47/156
